<svg xmlns="http://www.w3.org/2000/svg" viewBox="0 0 559.74 405.3"><defs><style>.cls-1{fill:#fff;}</style></defs><title>Asset 5</title><g id="Layer_2" data-name="Layer 2"><g id="Layer_1-2" data-name="Layer 1"><path class="cls-1" d="M446.37,212.35H119.14V0H446.37Zm-308.76-21.5H425.26v-172H137.61Z"/><polygon class="cls-1" points="470.48 247.3 96.74 247.3 96.63 225.79 470.39 225.79 470.48 247.3"/><path class="cls-1" d="M175.26,111.87v-1.13a5.21,5.21,0,0,1,2.2-3.8l77-47.48c2.86-1.79,6.16,0,6.16,3.58V82.52a4.55,4.55,0,0,1-1.76,3.14l-42,25.31,42,24.42a4.54,4.54,0,0,1,1.76,3.14V158c0,3.58-3.3,5.38-6.16,3.58l-77-45.91A5.26,5.26,0,0,1,175.26,111.87Z"/><path class="cls-1" d="M309.17,138.52a4.54,4.54,0,0,1,1.76-3.14l42-24.42-42-25.31a4.55,4.55,0,0,1-1.76-3.14V63c0-3.58,3.3-5.37,6.15-3.58l77,47.48a5.21,5.21,0,0,1,2.2,3.8v1.13a5.26,5.26,0,0,1-2.2,3.81l-77,45.91c-2.86,1.8-6.15,0-6.15-3.58Z"/><path class="cls-1" d="M0,320.75a4.1,4.1,0,0,1,4.11-4.11H27.24a4.1,4.1,0,0,1,4.11,4.11v40c0,8.86,5,16.65,13.84,16.65,8.43,0,13-8,13-15.35V320.75c0-3.46,2.38-4.11,4.54-4.11H84.75a4.1,4.1,0,0,1,4.11,4.11V399a4.25,4.25,0,0,1-4.11,4.11H74.59a4.73,4.73,0,0,1-4.11-3l-3.24-8c-5.62,5.41-12.54,13.19-29.18,13.19C12.32,405.3,0,384.54,0,359.9Z"/><path class="cls-1" d="M139.06,314.48c24.64,0,45,20.76,45,45.2,0,24.86-20.32,45.62-45,45.62s-45-20.76-45-45.62C94.09,335.24,114.42,314.48,139.06,314.48Zm0,62.93c9.51,0,17.08-8,17.08-17.73a17.08,17.08,0,1,0-34.16,0C122,369.41,129.55,377.41,139.06,377.41Z"/><path class="cls-1" d="M189.87,283.22a4.25,4.25,0,0,1,4.11-4.11h24a4.25,4.25,0,0,1,4.11,4.11v36.23a46,46,0,0,1,20.11-5c27.24,0,41.29,21.4,41.29,45.42V399a4.25,4.25,0,0,1-4.11,4.11H256.46a4.11,4.11,0,0,1-4.11-4.11V359.46c0-9.51-6.27-17.08-15.78-17.08-6.92,0-14.49,3.89-14.49,17.08V399c0,2.81-1.08,4.11-4.75,4.11H194a4.25,4.25,0,0,1-4.11-4.11Z"/><path class="cls-1" d="M320.67,347.79a40.59,40.59,0,0,1,16.64,3.46c0-8.43-1.3-12.76-11.67-12.76A91.49,91.49,0,0,0,304,341.74c-3.24,1.08-4.75-1.3-5.19-4.55l-1.95-13.63c-.65-3.67,1.3-5.19,3.24-5.84s17.08-3.24,28.75-3.24c26.81,0,36.54,11.24,36.54,36.77V399a4.25,4.25,0,0,1-4.11,4.11H351.8c-1.3,0-2.81-.43-3.89-2.81l-3-5.84c-5,4.54-12.54,10.81-26.16,10.81-17.08,0-29.83-11.46-29.83-28.54C288.89,360.11,301,347.79,320.67,347.79Zm5.62,36.32a9.3,9.3,0,1,0,0-18.59,9.18,9.18,0,0,0-9.3,9.08A9.41,9.41,0,0,0,326.29,384.11Z"/><path class="cls-1" d="M419.25,314.48c13.62,0,24.21,5.62,32.43,15.57,1.51,1.94.86,4.32-1.08,6.05l-13,12.34c-1.08,1.08-3.67.65-4.76-.43A17.14,17.14,0,0,0,403,359.9c0,9.73,7.35,17.51,16.86,17.51,7.57,0,11.24-3.24,14.7-6.7,1.51-1.52,3.46-1.95,4.76-.87l13,11.24c1.95,1.73,3,3.89,1.51,6.05-8,12.11-19.24,18.16-34.81,18.16-24.65,0-46.48-19.46-46.48-45.4C372.56,334.37,394.61,314.48,419.25,314.48Z"/><path class="cls-1" d="M461.41,283.22a4.25,4.25,0,0,1,4.11-4.11h24a4.26,4.26,0,0,1,4.11,4.11v66.3l26.16-30.28a7.22,7.22,0,0,1,5.41-2.59H549.4a4,4,0,0,1,3.24,6.7l-28.54,33.09,34.59,40.21c2.38,2.81.43,6.49-3.24,6.49H526.27a5.36,5.36,0,0,1-3.24-1.73l-29.4-37.62V399a4.25,4.25,0,0,1-4.11,4.11h-24a4.25,4.25,0,0,1-4.11-4.11Z"/></g></g></svg>